arm28_optimize_states
version=1
nRows=16
nColumns=21
inDegrees=yes

# SIMM Motion File Header:
name arm28_optimize_states
datacolumns 21
datarows 16
otherdata 1
range 0.73556939 0.81241455
endheader
time	r_shoulder_elev	r_elbow_flex	r_shoulder_elev_u	r_elbow_flex_u	TRIlong.activation	TRIlong.fiber_length	TRIlat.activation	TRIlat.fiber_length	TRImed.activation	TRImed.fiber_length	BIClong.activation	BIClong.fiber_length	BICshort.activation	BICshort.fiber_length	BRA.activation	BRA.fiber_length	DeltAnt.activation	DeltAnt.fiber_length	DeltPost.activation	DeltPost.fiber_length
      0.73556939	      7.87543262	    -27.41390627	     -2.64067842	    -56.47367966	      0.01000276	      0.13913316	      0.01000276	      0.06791401	      0.01000276	      0.06297148	      0.01000798	      0.14386592	      0.01000840	      0.14809829	      0.01000525	      0.08356379	      0.01000276	      0.15747650	      0.01000366	      0.11541832
      0.74059792	      7.86208701	    -27.69102666	     -2.66464129	    -53.74514517	      0.01000259	      0.13918513	      0.01000259	      0.06797469	      0.01000259	      0.06303173	      0.01000748	      0.14383737	      0.01000787	      0.14806458	      0.01000492	      0.08350600	      0.01000259	      0.15748474	      0.01000343	      0.11540786
      0.74562646	      7.84865669	    -27.95441278	     -2.67441795	    -51.01155321	      0.01000243	      0.13923557	      0.01000243	      0.06803384	      0.01000243	      0.06309044	      0.01000701	      0.14380970	      0.01000738	      0.14803174	      0.01000461	      0.08345061	      0.01000243	      0.15749305	      0.01000321	      0.11539732
      0.75065499	      7.83521170	    -28.20404451	     -2.67064315	    -48.27476030	      0.01000227	      0.13928429	      0.01000227	      0.06809123	      0.01000227	      0.06314738	      0.01000657	      0.14378301	      0.01000692	      0.14799989	      0.01000432	      0.08339769	      0.01000227	      0.15750139	      0.01000301	      0.11538675
      0.75568352	      7.82181924	    -28.43991164	     -2.65356834	    -45.53736535	      0.01000213	      0.13933111	      0.01000213	      0.06814665	      0.01000213	      0.06320235	      0.01000616	      0.14375737	      0.01000648	      0.14796914	      0.01000405	      0.08334728	      0.01000213	      0.15750971	      0.01000282	      0.11537620
      0.76071206	      7.80854467	    -28.66201588	     -2.62394377	    -42.80095289	      0.01000200	      0.13937589	      0.01000200	      0.06819990	      0.01000200	      0.06325516	      0.01000577	      0.14373287	      0.01000608	      0.14793957	      0.01000380	      0.08329945	      0.01000200	      0.15751798	      0.01000264	      0.11536574
      0.76617219	      7.79433637	    -28.88760998	     -2.57782809	    -39.83384600	      0.01000186	      0.13942205	      0.01000186	      0.06825507	      0.01000186	      0.06330984	      0.01000538	      0.14370765	      0.01000566	      0.14790894	      0.01000354	      0.08325049	      0.01000186	      0.15752685	      0.01000247	      0.11535451
      0.77163232	      7.78041721	    -29.09701896	     -2.51839938	    -36.87237252	      0.01000174	      0.13946548	      0.01000174	      0.06830730	      0.01000174	      0.06336158	      0.01000502	      0.14368392	      0.01000528	      0.14787992	      0.01000330	      0.08320467	      0.01000174	      0.15753557	      0.01000230	      0.11534351
      0.77662281	      7.76800888	    -29.27429192	     -2.45241494	    -34.17384809	      0.01000163	      0.13950270	      0.01000163	      0.06835231	      0.01000163	      0.06340615	      0.01000471	      0.14366360	      0.01000495	      0.14785491	      0.01000310	      0.08316559	      0.01000163	      0.15754335	      0.01000215	      0.11533366
      0.78161330	      7.75595522	    -29.43811906	     -2.37664875	    -31.48349631	      0.01000153	      0.13953746	      0.01000153	      0.06839460	      0.01000153	      0.06344800	      0.01000441	      0.14364466	      0.01000464	      0.14783141	      0.01000290	      0.08312921	      0.01000153	      0.15755093	      0.01000202	      0.11532411
      0.78654961	      7.74442869	    -29.58698606	     -2.29173949	    -28.83382389	      0.01000143	      0.13956934	      0.01000143	      0.06843364	      0.01000143	      0.06348661	      0.01000414	      0.14362732	      0.01000436	      0.14780972	      0.01000272	      0.08309591	      0.01000143	      0.15755819	      0.01000190	      0.11531493
      0.79148593	      7.73334301	    -29.72280182	     -2.19837250	    -26.19541183	      0.01000134	      0.13959869	      0.01000134	      0.06846984	      0.01000134	      0.06352238	      0.01000389	      0.14361141	      0.01000409	      0.14778962	      0.01000256	      0.08306530	      0.01000134	      0.15756520	      0.01000178	      0.11530612
      0.79685567	      7.72183284	    -29.85579413	     -2.08683857	    -23.34196392	      0.01000125	      0.13962769	      0.01000125	      0.06850591	      0.01000125	      0.06355798	      0.01000363	      0.14359575	      0.01000381	      0.14776962	      0.01000239	      0.08303508	      0.01000125	      0.15757250	      0.01000166	      0.11529692
      0.80222541	      7.71094607	    -29.97351125	     -1.96680464	    -20.50537638	      0.01000117	      0.13965358	      0.01000117	      0.06853845	      0.01000117	      0.06359006	      0.01000338	      0.14358185	      0.01000356	      0.14775162	      0.01000223	      0.08300807	      0.01000117	      0.15757942	      0.01000155	      0.11528825
      0.80759515	      7.70072767	    -30.07605130	     -1.83727856	    -17.69091492	      0.01000109	      0.13967635	      0.01000109	      0.06856740	      0.01000109	      0.06361856	      0.01000316	      0.14356973	      0.01000332	      0.14773565	      0.01000208	      0.08298428	      0.01000109	      0.15758594	      0.01000145	      0.11528001
      0.81241455	      7.69216458	    -30.15525706	     -1.71558968	    -15.18119249	      0.01000103	      0.13969409	      0.01000103	      0.06859030	      0.01000103	      0.06364106	      0.01000297	      0.14356038	      0.01000312	      0.14772308	      0.01000195	      0.08296568	      0.01000103	      0.15759143	      0.01000136	      0.11527318
